<?xml version="1.0" encoding="utf-8"?>
<!-- Generator: Adobe Illustrator 16.0.0, SVG Export Plug-In . SVG Version: 6.00 Build 0)  -->
<!DOCTYPE svg PUBLIC "-//W3C//DTD SVG 1.1//EN" "http://www.w3.org/Graphics/SVG/1.1/DTD/svg11.dtd">
<svg version="1.1" xmlns="http://www.w3.org/2000/svg" xmlns:xlink="http://www.w3.org/1999/xlink" x="0px" y="0px" width="110px"
	 height="110px" viewBox="0 0 110 110" enable-background="new 0 0 110 110" xml:space="preserve">
<g id="R-Multicolor">
	<g>
		<circle fill="#0091EA" cx="55" cy="55" r="55"/>
	</g>
	<g>
		<g>
			<g>
				<path fill="#90CAF9" d="M64,67c0,0,2.154-6.949,5-6c2.871,0.957,2.383,8.327-0.586,14.219c-0.314,0.622-0.787,1.154-1.369,1.538
					C62.402,79.814,53.195,79,45,79C37,79,31.941,62.993,64,67z"/>
			</g>
		</g>
		<g>
			<g>
				<path fill="#BBDEFB" d="M44.689,78.98l12.555-12.555C33.113,65.397,37.488,78.605,44.689,78.98z"/>
			</g>
		</g>
		<g>
			<path fill="#F0F0F0" d="M78.313,39c-0.184-0.128-22.684-15.796-22.885-15.893c0,0-0.002,0-0.002-0.001
				c-0.297-0.142-0.646-0.138-0.936,0.033L27.727,39h3.922l19.635-11.635L42.719,39h2.473L55,25.586L64.809,39h2.473l-7.902-10.736
				L74.811,39H78.313z"/>
		</g>
		<g>
			<g>
				<path fill="#D32F2F" d="M87,43c0,1.104-0.896,2-2,2H25c-1.105,0-2-0.896-2-2v-2c0-1.104,0.895-2,2-2h60c1.104,0,2,0.896,2,2V43z
					"/>
			</g>
		</g>
		<g>
			<g>
				<path fill="#F0F0F0" d="M35,51v-6h-2v6.437C33.613,51.166,34.285,51,35,51z"/>
			</g>
		</g>
		<g>
			<g>
				<path fill="#F0F0F0" d="M27,62.949V63c4.471,0,10.48,0,14.943,0c2.098-2.05,0.895-5.631-2.055-5.961
					C40.551,53.908,38.162,51,35,51c-2.371,0-4.348,1.655-4.861,3.87C27.17,52.707,23,54.823,23,58.5
					C23,60.814,24.754,62.698,27,62.949z"/>
			</g>
		</g>
		<g>
			<g>
				<path fill="#F0F0F0" d="M77,51.683V45h-2v8h0.105C75.656,52.461,76.297,52.018,77,51.683z"/>
			</g>
		</g>
		<g>
			<g>
				<path fill="#FFEE58" d="M83,63c-2.762,0-5-2.238-5-5s2.238-5,5-5c0.922,0,1.775,0.268,2.518,0.703
					C84.236,52.061,82.244,51,80,51c-3.867,0-7,3.134-7,7s3.133,7,7,7c2.244,0,4.236-1.061,5.518-2.703
					C84.775,62.732,83.922,63,83,63z"/>
			</g>
		</g>
		<g>
			<g>
				<path fill="#F0F0F0" d="M56,66.374V45h-2v21.366C54.645,66.358,55.305,66.357,56,66.374z"/>
			</g>
		</g>
		<g>
			<g>
				<path fill="#BBDEFB" d="M49.387,78.374c-0.281-0.288-0.363-0.716-0.207-1.087s0.52-0.612,0.922-0.612c2.373,0,5.816,0,7.129,0
					c0.301,0,0.586,0.136,0.775,0.368c0.916,1.124,2.457,2.947,2.9,4.355c0.201,0.635,0.072,1.328-0.344,1.849
					c-0.414,0.521-1.061,0.8-1.725,0.746C55.273,83.705,51.912,80.959,49.387,78.374z"/>
			</g>
		</g>
		<g>
			<g>
				<circle fill="#42A5F5" cx="46" cy="73" r="2"/>
			</g>
		</g>
		<g>
			<g>
				<circle fill="#42A5F5" cx="54" cy="73" r="2"/>
			</g>
		</g>
		<g>
			<g>
				<circle fill="#42A5F5" cx="62" cy="73" r="2"/>
			</g>
		</g>
		<g>
			<g>
				<path fill="#FFF59D" d="M73,58c0,1.425,0.428,2.748,1.158,3.854L78,58.012V58c0-2.762,2.238-5,5-5l0.012,0.001l0.838-0.839
					C82.746,51.43,81.424,51,80,51C76.133,51,73,54.134,73,58z"/>
			</g>
		</g>
		<g>
			<g>
				<path fill="#FFFFFF" d="M30.139,54.87C27.17,52.707,23,54.824,23,58.5c0,1.859,1.139,3.424,2.75,4.104l11.201-11.202
					C36.354,51.148,35.697,51,35,51C32.629,51,30.652,52.655,30.139,54.87z"/>
			</g>
		</g>
		<g>
			<g>
				<path fill="#EF5350" d="M55,39H25c-1.105,0-2,0.896-2,2v2c0,1.104,0.895,2,2,2h30V39z"/>
			</g>
		</g>
	</g>
</g>
<g id="Multicolor" display="none">
	<g display="inline">
		<g>
			<g>
				<path fill="#90CAF9" d="M64,67c0,0,2.154-6.949,5-6c2.871,0.957,2.383,8.327-0.586,14.219c-0.314,0.622-0.787,1.154-1.369,1.538
					C62.402,79.814,53.195,79,45,79C37,79,31.941,62.993,64,67z"/>
			</g>
		</g>
		<g>
			<g>
				<path fill="#BBDEFB" d="M44.689,78.98l12.555-12.555C33.113,65.397,37.488,78.605,44.689,78.98z"/>
			</g>
		</g>
		<g>
			<path fill="#F0F0F0" d="M78.313,39c-0.184-0.128-22.684-15.796-22.885-15.893c0,0-0.002,0-0.002-0.001
				c-0.297-0.142-0.646-0.138-0.936,0.033L27.727,39h3.922l19.635-11.635L42.719,39h2.473L55,25.586L64.809,39h2.473l-7.902-10.736
				L74.811,39H78.313z"/>
		</g>
		<g>
			<g>
				<path fill="#D32F2F" d="M87,43c0,1.104-0.896,2-2,2H25c-1.105,0-2-0.896-2-2v-2c0-1.104,0.895-2,2-2h60c1.104,0,2,0.896,2,2V43z
					"/>
			</g>
		</g>
		<g>
			<g>
				<path fill="#F0F0F0" d="M35,51v-6h-2v6.437C33.613,51.166,34.285,51,35,51z"/>
			</g>
		</g>
		<g>
			<g>
				<path fill="#F0F0F0" d="M27,62.949V63c4.471,0,10.48,0,14.943,0c2.098-2.05,0.895-5.631-2.055-5.961
					C40.551,53.908,38.162,51,35,51c-2.371,0-4.348,1.655-4.861,3.87C27.17,52.707,23,54.823,23,58.5
					C23,60.814,24.754,62.698,27,62.949z"/>
			</g>
		</g>
		<g>
			<g>
				<path fill="#F0F0F0" d="M77,51.683V45h-2v8h0.105C75.656,52.461,76.297,52.018,77,51.683z"/>
			</g>
		</g>
		<g>
			<g>
				<path fill="#FFEE58" d="M83,63c-2.762,0-5-2.238-5-5s2.238-5,5-5c0.922,0,1.775,0.268,2.518,0.703
					C84.236,52.061,82.244,51,80,51c-3.867,0-7,3.134-7,7s3.133,7,7,7c2.244,0,4.236-1.061,5.518-2.703
					C84.775,62.732,83.922,63,83,63z"/>
			</g>
		</g>
		<g>
			<g>
				<path fill="#F0F0F0" d="M56,66.374V45h-2v21.366C54.645,66.358,55.305,66.357,56,66.374z"/>
			</g>
		</g>
		<g>
			<g>
				<path fill="#BBDEFB" d="M49.387,78.374c-0.281-0.288-0.363-0.716-0.207-1.087s0.52-0.612,0.922-0.612c2.373,0,5.816,0,7.129,0
					c0.301,0,0.586,0.136,0.775,0.368c0.916,1.124,2.457,2.947,2.9,4.355c0.201,0.635,0.072,1.328-0.344,1.849
					c-0.414,0.521-1.061,0.8-1.725,0.746C55.273,83.705,51.912,80.959,49.387,78.374z"/>
			</g>
		</g>
		<g>
			<g>
				<circle fill="#42A5F5" cx="46" cy="73" r="2"/>
			</g>
		</g>
		<g>
			<g>
				<circle fill="#42A5F5" cx="54" cy="73" r="2"/>
			</g>
		</g>
		<g>
			<g>
				<circle fill="#42A5F5" cx="62" cy="73" r="2"/>
			</g>
		</g>
		<g>
			<g>
				<path fill="#FFF59D" d="M73,58c0,1.425,0.428,2.748,1.158,3.854L78,58.012V58c0-2.762,2.238-5,5-5l0.012,0.001l0.838-0.839
					C82.746,51.43,81.424,51,80,51C76.133,51,73,54.134,73,58z"/>
			</g>
		</g>
		<g>
			<g>
				<path fill="#FFFFFF" d="M30.139,54.87C27.17,52.707,23,54.824,23,58.5c0,1.859,1.139,3.424,2.75,4.104l11.201-11.202
					C36.354,51.148,35.697,51,35,51C32.629,51,30.652,52.655,30.139,54.87z"/>
			</g>
		</g>
		<g>
			<g>
				<path fill="#EF5350" d="M55,39H25c-1.105,0-2,0.896-2,2v2c0,1.104,0.895,2,2,2h30V39z"/>
			</g>
		</g>
	</g>
</g>
<g id="Blue" display="none">
	<g display="inline">
		<g>
			<path fill="#2962FF" d="M64,67c0,0,2.154-6.948,5-6c2.871,0.957,2.385,8.327-0.586,14.218c-0.314,0.623-0.785,1.155-1.367,1.539
				C62.402,79.815,53.195,79,45,79C37,79,31.943,62.993,64,67z"/>
		</g>
		<g>
			<path fill="#2979FF" d="M44.689,78.981l12.557-12.556C33.113,65.397,37.488,78.604,44.689,78.981z"/>
		</g>
		<path fill="#E8EAF6" d="M78.314,39c-0.186-0.128-22.684-15.796-22.887-15.893l-0.002-0.001c-0.297-0.142-0.646-0.139-0.936,0.033
			L27.727,39h3.922l19.635-11.635L42.719,39h2.473L55,25.586L64.809,39h2.473l-7.902-10.735L74.811,39H78.314z"/>
		<g>
			<path fill="#1A3B7E" d="M87,43c0,1.104-0.895,2-2,2H25c-1.105,0-2-0.896-2-2v-2c0-1.104,0.895-2,2-2h60c1.105,0,2,0.896,2,2V43z"
				/>
		</g>
		<g>
			<path fill="#E8EAF6" d="M35,51v-6h-2v6.437C33.613,51.165,34.285,51,35,51z"/>
		</g>
		<g>
			<path fill="#E8EAF6" d="M27,62.95V63c4.473,0,10.48,0,14.945,0c2.096-2.05,0.893-5.631-2.057-5.961
				C40.553,53.908,38.162,51,35,51c-2.371,0-4.348,1.655-4.861,3.87C27.17,52.707,23,54.823,23,58.5
				C23,60.813,24.754,62.698,27,62.95z"/>
		</g>
		<g>
			<path fill="#E8EAF6" d="M77,51.683V45h-2v8h0.105C75.656,52.461,76.297,52.018,77,51.683z"/>
		</g>
		<g>
			<path fill="#E8EAF6" d="M83,63c-2.762,0-5-2.238-5-5c0-2.761,2.238-5,5-5c0.924,0,1.777,0.268,2.518,0.703
				C84.238,52.061,82.244,51,80,51c-3.865,0-7,3.134-7,7s3.135,7,7,7c2.244,0,4.238-1.061,5.518-2.703
				C84.777,62.732,83.924,63,83,63z"/>
		</g>
		<g>
			<path fill="#E8EAF6" d="M56,66.374V45h-2v21.366C54.645,66.358,55.305,66.357,56,66.374z"/>
		</g>
		<g>
			<path fill="#448AFF" d="M49.387,78.374c-0.281-0.288-0.363-0.716-0.207-1.087s0.52-0.612,0.922-0.612c2.373,0,5.816,0,7.129,0
				c0.301,0,0.586,0.136,0.775,0.369c0.916,1.123,2.457,2.946,2.902,4.354c0.199,0.635,0.07,1.328-0.344,1.849
				c-0.416,0.521-1.063,0.801-1.727,0.746C55.273,83.705,51.912,80.96,49.387,78.374z"/>
		</g>
		<g>
			<circle fill="#E8EAF6" cx="46" cy="73" r="2"/>
		</g>
		<g>
			<circle fill="#E8EAF6" cx="54" cy="73" r="2"/>
		</g>
		<g>
			<circle fill="#E8EAF6" cx="62" cy="73" r="2"/>
		</g>
		<g>
			<path fill="#FFFFFF" d="M73,58c0,1.425,0.428,2.748,1.158,3.854l3.844-3.843C78.002,58.007,78,58.004,78,58c0-2.762,2.238-5,5-5
				l0.012,0.001l0.838-0.839C82.746,51.43,81.426,51,80,51C76.135,51,73,54.134,73,58z"/>
		</g>
		<g>
			<path fill="#FFFFFF" d="M30.139,54.87C27.17,52.707,23,54.823,23,58.5c0,1.858,1.141,3.424,2.75,4.104l11.201-11.202
				C36.354,51.148,35.697,51,35,51C32.629,51,30.654,52.655,30.139,54.87z"/>
		</g>
		<g>
			<path fill="#0D57A1" d="M55,39H25c-1.105,0-2,0.896-2,2v2c0,1.104,0.895,2,2,2h30V39z"/>
		</g>
	</g>
</g>
<g id="R-Blue" display="none">
	<circle display="inline" fill="#00B0FF" cx="55" cy="55" r="55"/>
	<g display="inline">
		<g>
			<path fill="#2962FF" d="M64,67c0,0,2.154-6.948,5-6c2.871,0.957,2.385,8.327-0.586,14.218c-0.314,0.623-0.785,1.155-1.367,1.539
				C62.402,79.815,53.195,79,45,79C37,79,31.943,62.993,64,67z"/>
		</g>
		<g>
			<path fill="#2979FF" d="M44.689,78.981l12.557-12.556C33.113,65.397,37.488,78.604,44.689,78.981z"/>
		</g>
		<path fill="#E8EAF6" d="M78.314,39c-0.186-0.128-22.684-15.796-22.887-15.893l-0.002-0.001c-0.297-0.142-0.646-0.139-0.936,0.033
			L27.727,39h3.922l19.635-11.635L42.719,39h2.473L55,25.586L64.809,39h2.473l-7.902-10.735L74.811,39H78.314z"/>
		<g>
			<path fill="#1A3B7E" d="M87,43c0,1.104-0.895,2-2,2H25c-1.105,0-2-0.896-2-2v-2c0-1.104,0.895-2,2-2h60c1.105,0,2,0.896,2,2V43z"
				/>
		</g>
		<g>
			<path fill="#E8EAF6" d="M35,51v-6h-2v6.437C33.613,51.165,34.285,51,35,51z"/>
		</g>
		<g>
			<path fill="#E8EAF6" d="M27,62.95V63c4.473,0,10.48,0,14.945,0c2.096-2.05,0.893-5.631-2.057-5.961
				C40.553,53.908,38.162,51,35,51c-2.371,0-4.348,1.655-4.861,3.87C27.17,52.707,23,54.823,23,58.5
				C23,60.813,24.754,62.698,27,62.95z"/>
		</g>
		<g>
			<path fill="#E8EAF6" d="M77,51.683V45h-2v8h0.105C75.656,52.461,76.297,52.018,77,51.683z"/>
		</g>
		<g>
			<path fill="#E8EAF6" d="M83,63c-2.762,0-5-2.238-5-5c0-2.761,2.238-5,5-5c0.924,0,1.777,0.268,2.518,0.703
				C84.238,52.061,82.244,51,80,51c-3.865,0-7,3.134-7,7s3.135,7,7,7c2.244,0,4.238-1.061,5.518-2.703
				C84.777,62.732,83.924,63,83,63z"/>
		</g>
		<g>
			<path fill="#E8EAF6" d="M56,66.374V45h-2v21.366C54.645,66.358,55.305,66.357,56,66.374z"/>
		</g>
		<g>
			<path fill="#448AFF" d="M49.387,78.374c-0.281-0.288-0.363-0.716-0.207-1.087s0.52-0.612,0.922-0.612c2.373,0,5.816,0,7.129,0
				c0.301,0,0.586,0.136,0.775,0.369c0.916,1.123,2.457,2.946,2.902,4.354c0.199,0.635,0.07,1.328-0.344,1.849
				c-0.416,0.521-1.063,0.801-1.727,0.746C55.273,83.705,51.912,80.96,49.387,78.374z"/>
		</g>
		<g>
			<circle fill="#E8EAF6" cx="46" cy="73" r="2"/>
		</g>
		<g>
			<circle fill="#E8EAF6" cx="54" cy="73" r="2"/>
		</g>
		<g>
			<circle fill="#E8EAF6" cx="62" cy="73" r="2"/>
		</g>
		<g>
			<path fill="#FFFFFF" d="M73,58c0,1.425,0.428,2.748,1.158,3.854l3.844-3.843C78.002,58.007,78,58.004,78,58c0-2.762,2.238-5,5-5
				l0.012,0.001l0.838-0.839C82.746,51.43,81.426,51,80,51C76.135,51,73,54.134,73,58z"/>
		</g>
		<g>
			<path fill="#FFFFFF" d="M30.139,54.87C27.17,52.707,23,54.823,23,58.5c0,1.858,1.141,3.424,2.75,4.104l11.201-11.202
				C36.354,51.148,35.697,51,35,51C32.629,51,30.654,52.655,30.139,54.87z"/>
		</g>
		<g>
			<path fill="#0D57A1" d="M55,39H25c-1.105,0-2,0.896-2,2v2c0,1.104,0.895,2,2,2h30V39z"/>
		</g>
	</g>
</g>
<g id="Green" display="none">
	<g display="inline">
		<g>
			<path fill="#00A344" d="M64,67c0,0,2.154-6.948,5-6c2.871,0.957,2.385,8.327-0.586,14.218c-0.314,0.623-0.785,1.155-1.367,1.539
				C62.402,79.815,53.195,79,45,79C37,79,31.943,62.993,64,67z"/>
		</g>
		<g>
			<path fill="#00C250" d="M44.689,78.981l12.557-12.556C33.113,65.397,37.488,78.604,44.689,78.981z"/>
		</g>
		<path fill="#ECF5E1" d="M78.314,39c-0.186-0.128-22.684-15.796-22.887-15.893l-0.002-0.001c-0.297-0.142-0.646-0.139-0.936,0.033
			L27.727,39h3.922l19.635-11.635L42.719,39h2.473L55,25.586L64.809,39h2.473l-7.902-10.735L74.811,39H78.314z"/>
		<g>
			<path fill="#003B15" d="M87,43c0,1.104-0.895,2-2,2H25c-1.105,0-2-0.896-2-2v-2c0-1.104,0.895-2,2-2h60c1.105,0,2,0.896,2,2V43z"
				/>
		</g>
		<g>
			<path fill="#ECF5E1" d="M35,51v-6h-2v6.437C33.613,51.165,34.285,51,35,51z"/>
		</g>
		<g>
			<path fill="#ECF5E1" d="M27,62.95V63c4.473,0,10.48,0,14.945,0c2.096-2.05,0.893-5.631-2.057-5.961
				C40.553,53.908,38.162,51,35,51c-2.371,0-4.348,1.655-4.861,3.87C27.17,52.707,23,54.823,23,58.5
				C23,60.813,24.754,62.698,27,62.95z"/>
		</g>
		<g>
			<path fill="#ECF5E1" d="M77,51.683V45h-2v8h0.105C75.656,52.461,76.297,52.018,77,51.683z"/>
		</g>
		<g>
			<path fill="#ECF5E1" d="M83,63c-2.762,0-5-2.238-5-5c0-2.761,2.238-5,5-5c0.924,0,1.777,0.268,2.518,0.703
				C84.238,52.061,82.244,51,80,51c-3.865,0-7,3.134-7,7s3.135,7,7,7c2.244,0,4.238-1.061,5.518-2.703
				C84.777,62.732,83.924,63,83,63z"/>
		</g>
		<g>
			<path fill="#ECF5E1" d="M56,66.374V45h-2v21.366C54.645,66.358,55.305,66.357,56,66.374z"/>
		</g>
		<g>
			<path fill="#00E676" d="M49.387,78.374c-0.281-0.288-0.363-0.716-0.207-1.087s0.52-0.612,0.922-0.612c2.373,0,5.816,0,7.129,0
				c0.301,0,0.586,0.136,0.775,0.369c0.916,1.123,2.457,2.946,2.902,4.354c0.199,0.635,0.07,1.328-0.344,1.849
				c-0.416,0.521-1.063,0.801-1.727,0.746C55.273,83.705,51.912,80.96,49.387,78.374z"/>
		</g>
		<g>
			<circle fill="#ECF5E1" cx="46" cy="73" r="2"/>
		</g>
		<g>
			<circle fill="#ECF5E1" cx="54" cy="73" r="2"/>
		</g>
		<g>
			<circle fill="#ECF5E1" cx="62" cy="73" r="2"/>
		</g>
		<g>
			<path fill="#FFFFFF" d="M73,58c0,1.425,0.428,2.748,1.158,3.854l3.844-3.843C78.002,58.007,78,58.004,78,58c0-2.762,2.238-5,5-5
				l0.012,0.001l0.838-0.839C82.746,51.43,81.426,51,80,51C76.135,51,73,54.134,73,58z"/>
		</g>
		<g>
			<path fill="#FFFFFF" d="M30.139,54.87C27.17,52.707,23,54.823,23,58.5c0,1.858,1.141,3.424,2.75,4.104l11.201-11.202
				C36.354,51.148,35.697,51,35,51C32.629,51,30.654,52.655,30.139,54.87z"/>
		</g>
		<g>
			<path fill="#006E31" d="M55,39H25c-1.105,0-2,0.896-2,2v2c0,1.104,0.895,2,2,2h30V39z"/>
		</g>
	</g>
</g>
<g id="R-Green" display="none">
	<circle display="inline" fill="#64DD17" cx="55" cy="55" r="55"/>
	<g display="inline">
		<g>
			<path fill="#00A344" d="M64,67c0,0,2.154-6.948,5-6c2.871,0.957,2.385,8.327-0.586,14.218c-0.314,0.623-0.785,1.155-1.367,1.539
				C62.402,79.815,53.195,79,45,79C37,79,31.943,62.993,64,67z"/>
		</g>
		<g>
			<path fill="#00C250" d="M44.689,78.981l12.557-12.556C33.113,65.397,37.488,78.604,44.689,78.981z"/>
		</g>
		<path fill="#ECF5E1" d="M78.314,39c-0.186-0.128-22.684-15.796-22.887-15.893l-0.002-0.001c-0.297-0.142-0.646-0.139-0.936,0.033
			L27.727,39h3.922l19.635-11.635L42.719,39h2.473L55,25.586L64.809,39h2.473l-7.902-10.735L74.811,39H78.314z"/>
		<g>
			<path fill="#003B15" d="M87,43c0,1.104-0.895,2-2,2H25c-1.105,0-2-0.896-2-2v-2c0-1.104,0.895-2,2-2h60c1.105,0,2,0.896,2,2V43z"
				/>
		</g>
		<g>
			<path fill="#ECF5E1" d="M35,51v-6h-2v6.437C33.613,51.165,34.285,51,35,51z"/>
		</g>
		<g>
			<path fill="#ECF5E1" d="M27,62.95V63c4.473,0,10.48,0,14.945,0c2.096-2.05,0.893-5.631-2.057-5.961
				C40.553,53.908,38.162,51,35,51c-2.371,0-4.348,1.655-4.861,3.87C27.17,52.707,23,54.823,23,58.5
				C23,60.813,24.754,62.698,27,62.95z"/>
		</g>
		<g>
			<path fill="#ECF5E1" d="M77,51.683V45h-2v8h0.105C75.656,52.461,76.297,52.018,77,51.683z"/>
		</g>
		<g>
			<path fill="#ECF5E1" d="M83,63c-2.762,0-5-2.238-5-5c0-2.761,2.238-5,5-5c0.924,0,1.777,0.268,2.518,0.703
				C84.238,52.061,82.244,51,80,51c-3.865,0-7,3.134-7,7s3.135,7,7,7c2.244,0,4.238-1.061,5.518-2.703
				C84.777,62.732,83.924,63,83,63z"/>
		</g>
		<g>
			<path fill="#ECF5E1" d="M56,66.374V45h-2v21.366C54.645,66.358,55.305,66.357,56,66.374z"/>
		</g>
		<g>
			<path fill="#00E676" d="M49.387,78.374c-0.281-0.288-0.363-0.716-0.207-1.087s0.52-0.612,0.922-0.612c2.373,0,5.816,0,7.129,0
				c0.301,0,0.586,0.136,0.775,0.369c0.916,1.123,2.457,2.946,2.902,4.354c0.199,0.635,0.07,1.328-0.344,1.849
				c-0.416,0.521-1.063,0.801-1.727,0.746C55.273,83.705,51.912,80.96,49.387,78.374z"/>
		</g>
		<g>
			<circle fill="#ECF5E1" cx="46" cy="73" r="2"/>
		</g>
		<g>
			<circle fill="#ECF5E1" cx="54" cy="73" r="2"/>
		</g>
		<g>
			<circle fill="#ECF5E1" cx="62" cy="73" r="2"/>
		</g>
		<g>
			<path fill="#FFFFFF" d="M73,58c0,1.425,0.428,2.748,1.158,3.854l3.844-3.843C78.002,58.007,78,58.004,78,58c0-2.762,2.238-5,5-5
				l0.012,0.001l0.838-0.839C82.746,51.43,81.426,51,80,51C76.135,51,73,54.134,73,58z"/>
		</g>
		<g>
			<path fill="#FFFFFF" d="M30.139,54.87C27.17,52.707,23,54.823,23,58.5c0,1.858,1.141,3.424,2.75,4.104l11.201-11.202
				C36.354,51.148,35.697,51,35,51C32.629,51,30.654,52.655,30.139,54.87z"/>
		</g>
		<g>
			<path fill="#006E31" d="M55,39H25c-1.105,0-2,0.896-2,2v2c0,1.104,0.895,2,2,2h30V39z"/>
		</g>
	</g>
</g>
<g id="Red" display="none">
	<g display="inline">
		<g>
			<path fill="#AC2200" d="M64,67c0,0,2.154-6.948,5-6c2.871,0.957,2.385,8.327-0.586,14.218c-0.314,0.623-0.785,1.155-1.367,1.539
				C62.402,79.815,53.195,79,45,79C37,79,31.943,62.993,64,67z"/>
		</g>
		<g>
			<path fill="#D22600" d="M44.689,78.981l12.557-12.556C33.113,65.397,37.488,78.604,44.689,78.981z"/>
		</g>
		<path fill="#FFE4DE" d="M78.314,39c-0.186-0.128-22.684-15.796-22.887-15.893l-0.002-0.001c-0.297-0.142-0.646-0.139-0.936,0.033
			L27.727,39h3.922l19.635-11.635L42.719,39h2.473L55,25.586L64.809,39h2.473l-7.902-10.735L74.811,39H78.314z"/>
		<g>
			<path fill="#2C0900" d="M87,43c0,1.104-0.895,2-2,2H25c-1.105,0-2-0.896-2-2v-2c0-1.104,0.895-2,2-2h60c1.105,0,2,0.896,2,2V43z"
				/>
		</g>
		<g>
			<path fill="#FFE4DE" d="M35,51v-6h-2v6.437C33.613,51.165,34.285,51,35,51z"/>
		</g>
		<g>
			<path fill="#FFE4DE" d="M27,62.95V63c4.473,0,10.48,0,14.945,0c2.096-2.05,0.893-5.631-2.057-5.961
				C40.553,53.908,38.162,51,35,51c-2.371,0-4.348,1.655-4.861,3.87C27.17,52.707,23,54.823,23,58.5
				C23,60.813,24.754,62.698,27,62.95z"/>
		</g>
		<g>
			<path fill="#FFE4DE" d="M77,51.683V45h-2v8h0.105C75.656,52.461,76.297,52.018,77,51.683z"/>
		</g>
		<g>
			<path fill="#FFE4DE" d="M83,63c-2.762,0-5-2.238-5-5c0-2.761,2.238-5,5-5c0.924,0,1.777,0.268,2.518,0.703
				C84.238,52.061,82.244,51,80,51c-3.865,0-7,3.134-7,7s3.135,7,7,7c2.244,0,4.238-1.061,5.518-2.703
				C84.777,62.732,83.924,63,83,63z"/>
		</g>
		<g>
			<path fill="#FFE4DE" d="M56,66.374V45h-2v21.366C54.645,66.358,55.305,66.357,56,66.374z"/>
		</g>
		<g>
			<path fill="#FF2F00" d="M49.387,78.374c-0.281-0.288-0.363-0.716-0.207-1.087s0.52-0.612,0.922-0.612c2.373,0,5.816,0,7.129,0
				c0.301,0,0.586,0.136,0.775,0.369c0.916,1.123,2.457,2.946,2.902,4.354c0.199,0.635,0.07,1.328-0.344,1.849
				c-0.416,0.521-1.063,0.801-1.727,0.746C55.273,83.705,51.912,80.96,49.387,78.374z"/>
		</g>
		<g>
			<circle fill="#FFE4DE" cx="46" cy="73" r="2"/>
		</g>
		<g>
			<circle fill="#FFE4DE" cx="54" cy="73" r="2"/>
		</g>
		<g>
			<circle fill="#FFE4DE" cx="62" cy="73" r="2"/>
		</g>
		<g>
			<path fill="#FFFFFF" d="M73,58c0,1.425,0.428,2.748,1.158,3.854l3.844-3.843C78.002,58.007,78,58.004,78,58c0-2.762,2.238-5,5-5
				l0.012,0.001l0.838-0.839C82.746,51.43,81.426,51,80,51C76.135,51,73,54.134,73,58z"/>
		</g>
		<g>
			<path fill="#FFFFFF" d="M30.139,54.87C27.17,52.707,23,54.823,23,58.5c0,1.858,1.141,3.424,2.75,4.104l11.201-11.202
				C36.354,51.148,35.697,51,35,51C32.629,51,30.654,52.655,30.139,54.87z"/>
		</g>
		<g>
			<path fill="#7A1C05" d="M55,39H25c-1.105,0-2,0.896-2,2v2c0,1.104,0.895,2,2,2h30V39z"/>
		</g>
	</g>
</g>
<g id="R-Red" display="none">
	<circle display="inline" fill="#FF5722" cx="55" cy="55" r="55"/>
	<g display="inline">
		<g>
			<path fill="#AC2200" d="M64,67c0,0,2.154-6.948,5-6c2.871,0.957,2.385,8.327-0.586,14.218c-0.314,0.623-0.785,1.155-1.367,1.539
				C62.402,79.815,53.195,79,45,79C37,79,31.943,62.993,64,67z"/>
		</g>
		<g>
			<path fill="#D22600" d="M44.689,78.981l12.557-12.556C33.113,65.397,37.488,78.604,44.689,78.981z"/>
		</g>
		<path fill="#FFE4DE" d="M78.314,39c-0.186-0.128-22.684-15.796-22.887-15.893l-0.002-0.001c-0.297-0.142-0.646-0.139-0.936,0.033
			L27.727,39h3.922l19.635-11.635L42.719,39h2.473L55,25.586L64.809,39h2.473l-7.902-10.735L74.811,39H78.314z"/>
		<g>
			<path fill="#2C0900" d="M87,43c0,1.104-0.895,2-2,2H25c-1.105,0-2-0.896-2-2v-2c0-1.104,0.895-2,2-2h60c1.105,0,2,0.896,2,2V43z"
				/>
		</g>
		<g>
			<path fill="#FFE4DE" d="M35,51v-6h-2v6.437C33.613,51.165,34.285,51,35,51z"/>
		</g>
		<g>
			<path fill="#FFE4DE" d="M27,62.95V63c4.473,0,10.48,0,14.945,0c2.096-2.05,0.893-5.631-2.057-5.961
				C40.553,53.908,38.162,51,35,51c-2.371,0-4.348,1.655-4.861,3.87C27.17,52.707,23,54.823,23,58.5
				C23,60.813,24.754,62.698,27,62.95z"/>
		</g>
		<g>
			<path fill="#FFE4DE" d="M77,51.683V45h-2v8h0.105C75.656,52.461,76.297,52.018,77,51.683z"/>
		</g>
		<g>
			<path fill="#FFE4DE" d="M83,63c-2.762,0-5-2.238-5-5c0-2.761,2.238-5,5-5c0.924,0,1.777,0.268,2.518,0.703
				C84.238,52.061,82.244,51,80,51c-3.865,0-7,3.134-7,7s3.135,7,7,7c2.244,0,4.238-1.061,5.518-2.703
				C84.777,62.732,83.924,63,83,63z"/>
		</g>
		<g>
			<path fill="#FFE4DE" d="M56,66.374V45h-2v21.366C54.645,66.358,55.305,66.357,56,66.374z"/>
		</g>
		<g>
			<path fill="#FF2F00" d="M49.387,78.374c-0.281-0.288-0.363-0.716-0.207-1.087s0.52-0.612,0.922-0.612c2.373,0,5.816,0,7.129,0
				c0.301,0,0.586,0.136,0.775,0.369c0.916,1.123,2.457,2.946,2.902,4.354c0.199,0.635,0.07,1.328-0.344,1.849
				c-0.416,0.521-1.063,0.801-1.727,0.746C55.273,83.705,51.912,80.96,49.387,78.374z"/>
		</g>
		<g>
			<circle fill="#FFE4DE" cx="46" cy="73" r="2"/>
		</g>
		<g>
			<circle fill="#FFE4DE" cx="54" cy="73" r="2"/>
		</g>
		<g>
			<circle fill="#FFE4DE" cx="62" cy="73" r="2"/>
		</g>
		<g>
			<path fill="#FFFFFF" d="M73,58c0,1.425,0.428,2.748,1.158,3.854l3.844-3.843C78.002,58.007,78,58.004,78,58c0-2.762,2.238-5,5-5
				l0.012,0.001l0.838-0.839C82.746,51.43,81.426,51,80,51C76.135,51,73,54.134,73,58z"/>
		</g>
		<g>
			<path fill="#FFFFFF" d="M30.139,54.87C27.17,52.707,23,54.823,23,58.5c0,1.858,1.141,3.424,2.75,4.104l11.201-11.202
				C36.354,51.148,35.697,51,35,51C32.629,51,30.654,52.655,30.139,54.87z"/>
		</g>
		<g>
			<path fill="#7A1C05" d="M55,39H25c-1.105,0-2,0.896-2,2v2c0,1.104,0.895,2,2,2h30V39z"/>
		</g>
	</g>
</g>
<g id="Yellow" display="none">
	<g display="inline">
		<g>
			<path fill="#FC6100" d="M64,67c0,0,2.154-6.948,5-6c2.871,0.957,2.385,8.327-0.586,14.218c-0.314,0.623-0.785,1.155-1.367,1.539
				C62.402,79.815,53.195,79,45,79C37,79,31.943,62.993,64,67z"/>
		</g>
		<g>
			<path fill="#FF8000" d="M44.689,78.981l12.557-12.556C33.113,65.397,37.488,78.604,44.689,78.981z"/>
		</g>
		<path fill="#FFF4D1" d="M78.314,39c-0.186-0.128-22.684-15.796-22.887-15.893l-0.002-0.001c-0.297-0.142-0.646-0.139-0.936,0.033
			L27.727,39h3.922l19.635-11.635L42.719,39h2.473L55,25.586L64.809,39h2.473l-7.902-10.735L74.811,39H78.314z"/>
		<g>
			<path fill="#4C2720" d="M87,43c0,1.104-0.895,2-2,2H25c-1.105,0-2-0.896-2-2v-2c0-1.104,0.895-2,2-2h60c1.105,0,2,0.896,2,2V43z"
				/>
		</g>
		<g>
			<path fill="#FFF4D1" d="M35,51v-6h-2v6.437C33.613,51.165,34.285,51,35,51z"/>
		</g>
		<g>
			<path fill="#FFF4D1" d="M27,62.95V63c4.473,0,10.48,0,14.945,0c2.096-2.05,0.893-5.631-2.057-5.961
				C40.553,53.908,38.162,51,35,51c-2.371,0-4.348,1.655-4.861,3.87C27.17,52.707,23,54.823,23,58.5
				C23,60.813,24.754,62.698,27,62.95z"/>
		</g>
		<g>
			<path fill="#FFF4D1" d="M77,51.683V45h-2v8h0.105C75.656,52.461,76.297,52.018,77,51.683z"/>
		</g>
		<g>
			<path fill="#FFF4D1" d="M83,63c-2.762,0-5-2.238-5-5c0-2.761,2.238-5,5-5c0.924,0,1.777,0.268,2.518,0.703
				C84.238,52.061,82.244,51,80,51c-3.865,0-7,3.134-7,7s3.135,7,7,7c2.244,0,4.238-1.061,5.518-2.703
				C84.777,62.732,83.924,63,83,63z"/>
		</g>
		<g>
			<path fill="#FFF4D1" d="M56,66.374V45h-2v21.366C54.645,66.358,55.305,66.357,56,66.374z"/>
		</g>
		<g>
			<path fill="#FFAA00" d="M49.387,78.374c-0.281-0.288-0.363-0.716-0.207-1.087s0.52-0.612,0.922-0.612c2.373,0,5.816,0,7.129,0
				c0.301,0,0.586,0.136,0.775,0.369c0.916,1.123,2.457,2.946,2.902,4.354c0.199,0.635,0.07,1.328-0.344,1.849
				c-0.416,0.521-1.063,0.801-1.727,0.746C55.273,83.705,51.912,80.96,49.387,78.374z"/>
		</g>
		<g>
			<circle fill="#FFF4D1" cx="46" cy="73" r="2"/>
		</g>
		<g>
			<circle fill="#FFF4D1" cx="54" cy="73" r="2"/>
		</g>
		<g>
			<circle fill="#FFF4D1" cx="62" cy="73" r="2"/>
		</g>
		<g>
			<path fill="#FFFFFF" d="M73,58c0,1.425,0.428,2.748,1.158,3.854l3.844-3.843C78.002,58.007,78,58.004,78,58c0-2.762,2.238-5,5-5
				l0.012,0.001l0.838-0.839C82.746,51.43,81.426,51,80,51C76.135,51,73,54.134,73,58z"/>
		</g>
		<g>
			<path fill="#FFFFFF" d="M30.139,54.87C27.17,52.707,23,54.823,23,58.5c0,1.858,1.141,3.424,2.75,4.104l11.201-11.202
				C36.354,51.148,35.697,51,35,51C32.629,51,30.654,52.655,30.139,54.87z"/>
		</g>
		<g>
			<path fill="#804B1C" d="M55,39H25c-1.105,0-2,0.896-2,2v2c0,1.104,0.895,2,2,2h30V39z"/>
		</g>
	</g>
</g>
<g id="R-Yellow" display="none">
	<circle display="inline" fill="#FFD600" cx="55" cy="55" r="55"/>
	<g display="inline">
		<g>
			<path fill="#FC6100" d="M64,67c0,0,2.154-6.948,5-6c2.871,0.957,2.385,8.327-0.586,14.218c-0.314,0.623-0.785,1.155-1.367,1.539
				C62.402,79.815,53.195,79,45,79C37,79,31.943,62.993,64,67z"/>
		</g>
		<g>
			<path fill="#FF8000" d="M44.689,78.981l12.557-12.556C33.113,65.397,37.488,78.604,44.689,78.981z"/>
		</g>
		<path fill="#FFF4D1" d="M78.314,39c-0.186-0.128-22.684-15.796-22.887-15.893l-0.002-0.001c-0.297-0.142-0.646-0.139-0.936,0.033
			L27.727,39h3.922l19.635-11.635L42.719,39h2.473L55,25.586L64.809,39h2.473l-7.902-10.735L74.811,39H78.314z"/>
		<g>
			<path fill="#4C2720" d="M87,43c0,1.104-0.895,2-2,2H25c-1.105,0-2-0.896-2-2v-2c0-1.104,0.895-2,2-2h60c1.105,0,2,0.896,2,2V43z"
				/>
		</g>
		<g>
			<path fill="#FFF4D1" d="M35,51v-6h-2v6.437C33.613,51.165,34.285,51,35,51z"/>
		</g>
		<g>
			<path fill="#FFF4D1" d="M27,62.95V63c4.473,0,10.48,0,14.945,0c2.096-2.05,0.893-5.631-2.057-5.961
				C40.553,53.908,38.162,51,35,51c-2.371,0-4.348,1.655-4.861,3.87C27.17,52.707,23,54.823,23,58.5
				C23,60.813,24.754,62.698,27,62.95z"/>
		</g>
		<g>
			<path fill="#FFF4D1" d="M77,51.683V45h-2v8h0.105C75.656,52.461,76.297,52.018,77,51.683z"/>
		</g>
		<g>
			<path fill="#FFF4D1" d="M83,63c-2.762,0-5-2.238-5-5c0-2.761,2.238-5,5-5c0.924,0,1.777,0.268,2.518,0.703
				C84.238,52.061,82.244,51,80,51c-3.865,0-7,3.134-7,7s3.135,7,7,7c2.244,0,4.238-1.061,5.518-2.703
				C84.777,62.732,83.924,63,83,63z"/>
		</g>
		<g>
			<path fill="#FFF4D1" d="M56,66.374V45h-2v21.366C54.645,66.358,55.305,66.357,56,66.374z"/>
		</g>
		<g>
			<path fill="#FFAA00" d="M49.387,78.374c-0.281-0.288-0.363-0.716-0.207-1.087s0.52-0.612,0.922-0.612c2.373,0,5.816,0,7.129,0
				c0.301,0,0.586,0.136,0.775,0.369c0.916,1.123,2.457,2.946,2.902,4.354c0.199,0.635,0.07,1.328-0.344,1.849
				c-0.416,0.521-1.063,0.801-1.727,0.746C55.273,83.705,51.912,80.96,49.387,78.374z"/>
		</g>
		<g>
			<circle fill="#FFF4D1" cx="46" cy="73" r="2"/>
		</g>
		<g>
			<circle fill="#FFF4D1" cx="54" cy="73" r="2"/>
		</g>
		<g>
			<circle fill="#FFF4D1" cx="62" cy="73" r="2"/>
		</g>
		<g>
			<path fill="#FFFFFF" d="M73,58c0,1.425,0.428,2.748,1.158,3.854l3.844-3.843C78.002,58.007,78,58.004,78,58c0-2.762,2.238-5,5-5
				l0.012,0.001l0.838-0.839C82.746,51.43,81.426,51,80,51C76.135,51,73,54.134,73,58z"/>
		</g>
		<g>
			<path fill="#FFFFFF" d="M30.139,54.87C27.17,52.707,23,54.823,23,58.5c0,1.858,1.141,3.424,2.75,4.104l11.201-11.202
				C36.354,51.148,35.697,51,35,51C32.629,51,30.654,52.655,30.139,54.87z"/>
		</g>
		<g>
			<path fill="#804B1C" d="M55,39H25c-1.105,0-2,0.896-2,2v2c0,1.104,0.895,2,2,2h30V39z"/>
		</g>
	</g>
</g>
</svg>
