<?xml version="1.0" encoding="utf-8"?>
<!-- Generator: Adobe Illustrator 16.0.0, SVG Export Plug-In . SVG Version: 6.00 Build 0)  -->
<!DOCTYPE svg PUBLIC "-//W3C//DTD SVG 1.1//EN" "http://www.w3.org/Graphics/SVG/1.1/DTD/svg11.dtd">
<svg version="1.1" xmlns="http://www.w3.org/2000/svg" xmlns:xlink="http://www.w3.org/1999/xlink" x="0px" y="0px" width="110px"
	 height="110px" viewBox="0 0 110 110" enable-background="new 0 0 110 110" xml:space="preserve">
<g id="R-Multicolor">
	<g>
		<circle fill="#FFC400" cx="55" cy="55" r="55"/>
	</g>
	<g>
		<g>
			<path fill="#FFCDD2" d="M70,45.036c-0.348,0-0.694,0-1,0V45c-0.003-1.721-0.044-3.403-0.196-5c-5.457,0-13.831,0-13.831,0
				s-8.319,0-13.776,0c-0.152,1.597-0.193,3.279-0.196,5v8l4,10l5.105,3.995c0.569,0.64,1.384,1.005,2.24,1.005H55h2.655
				c0.856,0,1.671-0.365,2.24-1.005L65,63l3.193-7.982C71.039,54.827,72,50.517,72,47.258C72,46.148,71,45.036,70,45.036z"/>
		</g>
		<g>
			<g>
				<path fill="#212121" d="M83,76c-0.615-1.333-1.698-2.394-3.043-2.983L65,69H55H45l-14.958,4.017
					C28.698,73.606,27.615,74.667,27,76l-4,11h32h32L83,76z"/>
			</g>
		</g>
		<g>
			<path fill="#F4B1A9" d="M57.655,68H55h-2.655c-0.856,0-1.671-0.365-2.24-1.005L45,63v11c0,0,2,4,10,4s10-4,10-4V63l-5.105,3.995
				C59.326,67.635,58.511,68,57.655,68z"/>
		</g>
		<g>
			<path fill="#FFCDD2" d="M50.105,66.995L45,63v11c0,0,2,4,10,4V68h-2.655C51.489,68,50.674,67.635,50.105,66.995z"/>
		</g>
		<g>
			<path fill="#00897B" d="M75.553,82.106C75.214,81.428,74.521,81,73.764,81h-1.937L70,70.036l-4-1L66.92,81H55H43.08L44,69.036
				l-4,1L38.173,81h-1.937c-0.758,0-1.45,0.428-1.789,1.106L32,87h23h23L75.553,82.106z"/>
		</g>
		<g>
			<path fill="#FFEBEE" d="M54.973,40c0,0-8.319,0-13.776,0c-0.152,1.597-0.193,3.279-0.196,5v0.036c-0.306,0-0.652,0-1,0
				c-1,0-2,1.112-2,2.222c0,3.259,0.961,7.569,3.807,7.76L45,63l5.105,3.996C50.674,67.635,51.489,68,52.345,68H55V40
				C54.995,40,54.973,40,54.973,40z"/>
		</g>
		<g>
			<g>
				<path fill="#212121" d="M52,47.036c0-1.104-0.896-2-2-2c-0.002,0-0.004,0.001-0.006,0.001C49.995,45.058,50,45.078,50,45.099
					c0,1.103-0.892,1.996-1.994,2c0.033,1.075,0.91,1.938,1.994,1.938C51.104,49.036,52,48.141,52,47.036z"/>
			</g>
		</g>
		<g>
			<g>
				<path fill="#212121" d="M61.994,47.036c0-1.104-0.896-2-2-2c-0.002,0-0.004,0.001-0.006,0.001
					c0.001,0.021,0.006,0.041,0.006,0.062c0,1.103-0.892,1.996-1.994,2c0.033,1.075,0.91,1.938,1.994,1.938
					C61.098,49.036,61.994,48.141,61.994,47.036z"/>
			</g>
		</g>
		<g>
			<g>
				<path fill="#E57373" d="M50,57.033h10c0,0,0,3-5,3S50,57.033,50,57.033z"/>
			</g>
		</g>
		<g>
			<g>
				<path fill="#8F4E38" d="M43,36v16h-2v-3.171c0-1.812,0-2.792-2-3.792V40C39,37.791,40.791,36,43,36z"/>
			</g>
		</g>
		<g>
			<g>
				<path fill="#8F4E38" d="M67,36v16h2v-3.171c0-1.812,0-2.792,2-3.792V40C71,37.791,69.208,36,67,36z"/>
			</g>
		</g>
		<g>
			<path fill="#212121" d="M56.957,24.078c0.004-0.026,0.016-0.051,0.016-0.078c0-0.552-0.896-1-2-1s-2,0.448-2,1
				c0,0.027,0.012,0.052,0.016,0.078c-5.779,0.453-13.462,3.177-13.987,14.653C38.97,39.422,39.521,40,40.213,40
				c5.373,0,14.76,0,14.76,0s9.388,0,14.76,0c0.691,0,1.243-0.578,1.211-1.269C70.419,27.255,62.736,24.531,56.957,24.078z"/>
		</g>
		<g>
			<g>
				<path fill="#26A69A" d="M54.973,35c-1.654,0-3-1.346-3-3s1.346-3,3-3c1.654,0,3,1.346,3,3S56.626,35,54.973,35z"/>
			</g>
		</g>
		<g>
			<g>
				<path fill="#FFFFFF" d="M54.973,29c1.657,0,3,1.343,3,3s-1.343,3-3,3s-3-1.343-3-3S53.316,29,54.973,29 M54.973,28
					c-2.206,0-4,1.794-4,4s1.794,4,4,4s4-1.794,4-4S57.178,28,54.973,28L54.973,28z"/>
			</g>
		</g>
		<g>
			<path fill="#545554" d="M54.973,37.356c-8.169,0.063-14.169,2.71-14,2.644c1,2,1,7,4,5.356c1.24-0.681,5-3,10-3s8.76,2.319,10,3
				c3,1.644,3-3.356,4-5.356C69.142,40.066,63.142,37.419,54.973,37.356z"/>
		</g>
	</g>
</g>
<g id="Multicolor" display="none">
	<g display="inline">
		<g>
			<path fill="#FFCDD2" d="M70,45.036c-0.348,0-0.694,0-1,0V45c-0.003-1.721-0.044-3.403-0.196-5c-5.457,0-13.831,0-13.831,0
				s-8.319,0-13.776,0c-0.152,1.597-0.193,3.279-0.196,5v8l4,10l5.105,3.995c0.569,0.64,1.384,1.005,2.24,1.005H55h2.655
				c0.856,0,1.671-0.365,2.24-1.005L65,63l3.193-7.982C71.039,54.827,72,50.517,72,47.258C72,46.148,71,45.036,70,45.036z"/>
		</g>
		<g>
			<g>
				<path fill="#212121" d="M83,76c-0.615-1.333-1.698-2.394-3.043-2.983L65,69H55H45l-14.958,4.017
					C28.698,73.606,27.615,74.667,27,76l-4,11h32h32L83,76z"/>
			</g>
		</g>
		<g>
			<path fill="#F4B1A9" d="M57.655,68H55h-2.655c-0.856,0-1.671-0.365-2.24-1.005L45,63v11c0,0,2,4,10,4s10-4,10-4V63l-5.105,3.995
				C59.326,67.635,58.511,68,57.655,68z"/>
		</g>
		<g>
			<path fill="#FFCDD2" d="M50.105,66.995L45,63v11c0,0,2,4,10,4V68h-2.655C51.489,68,50.674,67.635,50.105,66.995z"/>
		</g>
		<g>
			<path fill="#00897B" d="M75.553,82.106C75.214,81.428,74.521,81,73.764,81h-1.937L70,70.036l-4-1L66.92,81H55H43.08L44,69.036
				l-4,1L38.173,81h-1.937c-0.758,0-1.45,0.428-1.789,1.106L32,87h23h23L75.553,82.106z"/>
		</g>
		<g>
			<path fill="#FFEBEE" d="M54.973,40c0,0-8.319,0-13.776,0c-0.152,1.597-0.193,3.279-0.196,5v0.036c-0.306,0-0.652,0-1,0
				c-1,0-2,1.112-2,2.222c0,3.259,0.961,7.569,3.807,7.76L45,63l5.105,3.996C50.674,67.635,51.489,68,52.345,68H55V40
				C54.995,40,54.973,40,54.973,40z"/>
		</g>
		<g>
			<g>
				<path fill="#212121" d="M52,47.036c0-1.104-0.896-2-2-2c-0.002,0-0.004,0.001-0.006,0.001C49.995,45.058,50,45.078,50,45.099
					c0,1.103-0.892,1.996-1.994,2c0.033,1.075,0.91,1.938,1.994,1.938C51.104,49.036,52,48.141,52,47.036z"/>
			</g>
		</g>
		<g>
			<g>
				<path fill="#212121" d="M61.994,47.036c0-1.104-0.896-2-2-2c-0.002,0-0.004,0.001-0.006,0.001
					c0.001,0.021,0.006,0.041,0.006,0.062c0,1.103-0.892,1.996-1.994,2c0.033,1.075,0.91,1.938,1.994,1.938
					C61.098,49.036,61.994,48.141,61.994,47.036z"/>
			</g>
		</g>
		<g>
			<g>
				<path fill="#E57373" d="M50,57.033h10c0,0,0,3-5,3S50,57.033,50,57.033z"/>
			</g>
		</g>
		<g>
			<g>
				<path fill="#8F4E38" d="M43,36v16h-2v-3.171c0-1.812,0-2.792-2-3.792V40C39,37.791,40.791,36,43,36z"/>
			</g>
		</g>
		<g>
			<g>
				<path fill="#8F4E38" d="M67,36v16h2v-3.171c0-1.812,0-2.792,2-3.792V40C71,37.791,69.208,36,67,36z"/>
			</g>
		</g>
		<g>
			<path fill="#212121" d="M56.957,24.078c0.004-0.026,0.016-0.051,0.016-0.078c0-0.552-0.896-1-2-1s-2,0.448-2,1
				c0,0.027,0.012,0.052,0.016,0.078c-5.779,0.453-13.462,3.177-13.987,14.653C38.97,39.422,39.521,40,40.213,40
				c5.373,0,14.76,0,14.76,0s9.388,0,14.76,0c0.691,0,1.243-0.578,1.211-1.269C70.419,27.255,62.736,24.531,56.957,24.078z"/>
		</g>
		<g>
			<g>
				<path fill="#26A69A" d="M54.973,35c-1.654,0-3-1.346-3-3s1.346-3,3-3c1.654,0,3,1.346,3,3S56.626,35,54.973,35z"/>
			</g>
		</g>
		<g>
			<g>
				<path fill="#FFFFFF" d="M54.973,29c1.657,0,3,1.343,3,3s-1.343,3-3,3s-3-1.343-3-3S53.316,29,54.973,29 M54.973,28
					c-2.206,0-4,1.794-4,4s1.794,4,4,4s4-1.794,4-4S57.178,28,54.973,28L54.973,28z"/>
			</g>
		</g>
		<g>
			<path fill="#545554" d="M54.973,37.356c-8.169,0.063-14.169,2.71-14,2.644c1,2,1,7,4,5.356c1.24-0.681,5-3,10-3s8.76,2.319,10,3
				c3,1.644,3-3.356,4-5.356C69.142,40.066,63.142,37.419,54.973,37.356z"/>
		</g>
	</g>
</g>
<g id="Blue" display="none">
	<g display="inline">
		<path fill="#E8EAF6" d="M70,45.036c-0.348,0-0.694,0-1,0V45c-0.003-1.721-0.044-3.403-0.196-5c-5.457,0-13.831,0-13.831,0
			s-8.319,0-13.776,0c-0.152,1.597-0.193,3.279-0.196,5v8l4,10l5.105,3.995c0.569,0.64,1.384,1.005,2.24,1.005H55h2.655
			c0.856,0,1.671-0.365,2.24-1.005L65,63l3.193-7.982C71.039,54.827,72,50.517,72,47.258C72,46.148,71,45.036,70,45.036z"/>
		<g>
			<path fill="#1A3B7E" d="M83,76c-0.615-1.333-1.698-2.394-3.043-2.983L65,69H55H45l-14.958,4.017
				C28.698,73.606,27.615,74.667,27,76l-4,11h32h32L83,76z"/>
		</g>
		<path fill="#C5CAE9" d="M57.655,68H55h-2.655c-0.856,0-1.671-0.365-2.24-1.005L45,63v11c0,0,2,4,10,4s10-4,10-4V63l-5.105,3.995
			C59.326,67.635,58.511,68,57.655,68z"/>
		<path fill="#E8EAF6" d="M50.105,66.995L45,63v11c0,0,2,4,10,4V68h-2.655C51.489,68,50.674,67.635,50.105,66.995z"/>
		<path fill="#2979FF" d="M75.553,82.106C75.214,81.428,74.521,81,73.764,81h-1.937L70,70.036l-4-1L66.92,81H55H43.08L44,69.036
			l-4,1L38.173,81h-1.937c-0.758,0-1.45,0.428-1.789,1.106L32,87h23h23L75.553,82.106z"/>
		<path fill="#FFFFFF" d="M54.973,40c0,0-8.319,0-13.776,0c-0.152,1.597-0.193,3.279-0.196,5v0.036c-0.306,0-0.652,0-1,0
			c-1,0-2,1.112-2,2.222c0,3.259,0.961,7.569,3.807,7.76L45,63l5.105,3.996C50.674,67.635,51.489,68,52.345,68H55V40
			C54.995,40,54.973,40,54.973,40z"/>
		<g>
			<path fill="#1A3B7E" d="M52,47.036c0-1.104-0.896-2-2-2c-0.002,0-0.004,0.001-0.006,0.001C49.995,45.058,50,45.078,50,45.099
				c0,1.103-0.892,1.996-1.994,2c0.033,1.075,0.91,1.938,1.994,1.938C51.104,49.036,52,48.141,52,47.036z"/>
		</g>
		<g>
			<path fill="#1A3B7E" d="M61.994,47.036c0-1.104-0.896-2-2-2c-0.002,0-0.004,0.001-0.006,0.001
				c0.001,0.021,0.006,0.041,0.006,0.062c0,1.103-0.892,1.996-1.994,2c0.033,1.075,0.91,1.938,1.994,1.938
				C61.098,49.036,61.994,48.141,61.994,47.036z"/>
		</g>
		<g>
			<path fill="#1E88E5" d="M50,57.033h10c0,0,0,3-5,3S50,57.033,50,57.033z"/>
		</g>
		<g>
			<path fill="#1565C0" d="M43,36v16h-2v-3.171c0-1.812,0-2.792-2-3.792V40C39,37.791,40.791,36,43,36z"/>
		</g>
		<g>
			<path fill="#1565C0" d="M67,36v16h2v-3.171c0-1.812,0-2.792,2-3.792V40C71,37.791,69.208,36,67,36z"/>
		</g>
		<path fill="#1A3B7E" d="M56.957,24.078c0.004-0.026,0.016-0.051,0.016-0.078c0-0.552-0.896-1-2-1s-2,0.448-2,1
			c0,0.027,0.012,0.052,0.016,0.078c-5.779,0.453-13.462,3.177-13.987,14.653C38.97,39.422,39.521,40,40.213,40
			c5.373,0,14.76,0,14.76,0s9.388,0,14.76,0c0.691,0,1.243-0.578,1.211-1.269C70.419,27.255,62.736,24.531,56.957,24.078z"/>
		<g>
			<path fill="#448AFF" d="M54.973,35c-1.654,0-3-1.346-3-3s1.346-3,3-3c1.654,0,3,1.346,3,3S56.626,35,54.973,35z"/>
		</g>
		<g>
			<path fill="#FFFFFF" d="M54.973,29c1.657,0,3,1.343,3,3s-1.343,3-3,3s-3-1.343-3-3S53.316,29,54.973,29 M54.973,28
				c-2.206,0-4,1.794-4,4s1.794,4,4,4s4-1.794,4-4S57.178,28,54.973,28L54.973,28z"/>
		</g>
		<path fill="#0D57A1" d="M54.973,37.356c-8.169,0.063-14.169,2.71-14,2.644c1,2,1,7,4,5.356c1.24-0.681,5-3,10-3s8.76,2.319,10,3
			c3,1.644,3-3.356,4-5.356C69.142,40.066,63.142,37.419,54.973,37.356z"/>
	</g>
</g>
<g id="R-Blue" display="none">
	<g display="inline">
		<circle fill="#00B0FF" cx="55" cy="55" r="55"/>
	</g>
	<g display="inline">
		<path fill="#E8EAF6" d="M70,45.036c-0.348,0-0.694,0-1,0V45c-0.003-1.721-0.044-3.403-0.196-5c-5.457,0-13.831,0-13.831,0
			s-8.319,0-13.776,0c-0.152,1.597-0.193,3.279-0.196,5v8l4,10l5.105,3.995c0.569,0.64,1.384,1.005,2.24,1.005H55h2.655
			c0.856,0,1.671-0.365,2.24-1.005L65,63l3.193-7.982C71.039,54.827,72,50.517,72,47.258C72,46.148,71,45.036,70,45.036z"/>
		<g>
			<path fill="#1A3B7E" d="M83,76c-0.615-1.333-1.698-2.394-3.043-2.983L65,69H55H45l-14.958,4.017
				C28.698,73.606,27.615,74.667,27,76l-4,11h32h32L83,76z"/>
		</g>
		<path fill="#C5CAE9" d="M57.655,68H55h-2.655c-0.856,0-1.671-0.365-2.24-1.005L45,63v11c0,0,2,4,10,4s10-4,10-4V63l-5.105,3.995
			C59.326,67.635,58.511,68,57.655,68z"/>
		<path fill="#E8EAF6" d="M50.105,66.995L45,63v11c0,0,2,4,10,4V68h-2.655C51.489,68,50.674,67.635,50.105,66.995z"/>
		<path fill="#2979FF" d="M75.553,82.106C75.214,81.428,74.521,81,73.764,81h-1.937L70,70.036l-4-1L66.92,81H55H43.08L44,69.036
			l-4,1L38.173,81h-1.937c-0.758,0-1.45,0.428-1.789,1.106L32,87h23h23L75.553,82.106z"/>
		<path fill="#FFFFFF" d="M54.973,40c0,0-8.319,0-13.776,0c-0.152,1.597-0.193,3.279-0.196,5v0.036c-0.306,0-0.652,0-1,0
			c-1,0-2,1.112-2,2.222c0,3.259,0.961,7.569,3.807,7.76L45,63l5.105,3.996C50.674,67.635,51.489,68,52.345,68H55V40
			C54.995,40,54.973,40,54.973,40z"/>
		<g>
			<path fill="#1A3B7E" d="M52,47.036c0-1.104-0.896-2-2-2c-0.002,0-0.004,0.001-0.006,0.001C49.995,45.058,50,45.078,50,45.099
				c0,1.103-0.892,1.996-1.994,2c0.033,1.075,0.91,1.938,1.994,1.938C51.104,49.036,52,48.141,52,47.036z"/>
		</g>
		<g>
			<path fill="#1A3B7E" d="M61.994,47.036c0-1.104-0.896-2-2-2c-0.002,0-0.004,0.001-0.006,0.001
				c0.001,0.021,0.006,0.041,0.006,0.062c0,1.103-0.892,1.996-1.994,2c0.033,1.075,0.91,1.938,1.994,1.938
				C61.098,49.036,61.994,48.141,61.994,47.036z"/>
		</g>
		<g>
			<path fill="#1E88E5" d="M50,57.033h10c0,0,0,3-5,3S50,57.033,50,57.033z"/>
		</g>
		<g>
			<path fill="#1565C0" d="M43,36v16h-2v-3.171c0-1.812,0-2.792-2-3.792V40C39,37.791,40.791,36,43,36z"/>
		</g>
		<g>
			<path fill="#1565C0" d="M67,36v16h2v-3.171c0-1.812,0-2.792,2-3.792V40C71,37.791,69.208,36,67,36z"/>
		</g>
		<path fill="#1A3B7E" d="M56.957,24.078c0.004-0.026,0.016-0.051,0.016-0.078c0-0.552-0.896-1-2-1s-2,0.448-2,1
			c0,0.027,0.012,0.052,0.016,0.078c-5.779,0.453-13.462,3.177-13.987,14.653C38.97,39.422,39.521,40,40.213,40
			c5.373,0,14.76,0,14.76,0s9.388,0,14.76,0c0.691,0,1.243-0.578,1.211-1.269C70.419,27.255,62.736,24.531,56.957,24.078z"/>
		<g>
			<path fill="#448AFF" d="M54.973,35c-1.654,0-3-1.346-3-3s1.346-3,3-3c1.654,0,3,1.346,3,3S56.626,35,54.973,35z"/>
		</g>
		<g>
			<path fill="#FFFFFF" d="M54.973,29c1.657,0,3,1.343,3,3s-1.343,3-3,3s-3-1.343-3-3S53.316,29,54.973,29 M54.973,28
				c-2.206,0-4,1.794-4,4s1.794,4,4,4s4-1.794,4-4S57.178,28,54.973,28L54.973,28z"/>
		</g>
		<path fill="#0C58A2" d="M54.973,37.356c-8.169,0.063-14.169,2.71-14,2.644c1,2,1,7,4,5.356c1.24-0.681,5-3,10-3s8.76,2.319,10,3
			c3,1.644,3-3.356,4-5.356C69.142,40.066,63.142,37.419,54.973,37.356z"/>
	</g>
</g>
<g id="Green" display="none">
	<g display="inline">
		<path fill="#ECF5E1" d="M70,45.036c-0.348,0-0.694,0-1,0V45c-0.003-1.721-0.044-3.403-0.196-5c-5.457,0-13.831,0-13.831,0
			s-8.319,0-13.776,0c-0.152,1.597-0.193,3.279-0.196,5v8l4,10l5.105,3.995c0.569,0.64,1.384,1.005,2.24,1.005H55h2.655
			c0.856,0,1.671-0.365,2.24-1.005L65,63l3.193-7.982C71.039,54.827,72,50.517,72,47.258C72,46.148,71,45.036,70,45.036z"/>
		<g>
			<path fill="#003B15" d="M83,76c-0.615-1.333-1.698-2.394-3.043-2.983L65,69H55H45l-14.958,4.017
				C28.698,73.606,27.615,74.667,27,76l-4,11h32h32L83,76z"/>
		</g>
		<path fill="#C5EB98" d="M57.655,68H55h-2.655c-0.856,0-1.671-0.365-2.24-1.005L45,63v11c0,0,2,4,10,4s10-4,10-4V63l-5.105,3.995
			C59.326,67.635,58.511,68,57.655,68z"/>
		<path fill="#ECF5E1" d="M50.105,66.995L45,63v11c0,0,2,4,10,4V68h-2.655C51.489,68,50.674,67.635,50.105,66.995z"/>
		<path fill="#00C250" d="M75.553,82.106C75.214,81.428,74.521,81,73.764,81h-1.937L70,70.036l-4-1L66.92,81H55H43.08L44,69.036
			l-4,1L38.173,81h-1.937c-0.758,0-1.45,0.428-1.789,1.106L32,87h23h23L75.553,82.106z"/>
		<path fill="#FFFFFF" d="M54.973,40c0,0-8.319,0-13.776,0c-0.152,1.597-0.193,3.279-0.196,5v0.036c-0.306,0-0.652,0-1,0
			c-1,0-2,1.112-2,2.222c0,3.259,0.961,7.569,3.807,7.76L45,63l5.105,3.996C50.674,67.635,51.489,68,52.345,68H55V40
			C54.995,40,54.973,40,54.973,40z"/>
		<g>
			<path fill="#003B15" d="M52,47.036c0-1.104-0.896-2-2-2c-0.002,0-0.004,0.001-0.006,0.001C49.995,45.058,50,45.078,50,45.099
				c0,1.103-0.892,1.996-1.994,2c0.033,1.075,0.91,1.938,1.994,1.938C51.104,49.036,52,48.141,52,47.036z"/>
		</g>
		<g>
			<path fill="#003B15" d="M61.994,47.036c0-1.104-0.896-2-2-2c-0.002,0-0.004,0.001-0.006,0.001
				c0.001,0.021,0.006,0.041,0.006,0.062c0,1.103-0.892,1.996-1.994,2c0.033,1.075,0.91,1.938,1.994,1.938
				C61.098,49.036,61.994,48.141,61.994,47.036z"/>
		</g>
		<g>
			<path fill="#56C435" d="M50,57.033h10c0,0,0,3-5,3S50,57.033,50,57.033z"/>
		</g>
		<g>
			<path fill="#008232" d="M43,36v16h-2v-3.171c0-1.812,0-2.792-2-3.792V40C39,37.791,40.791,36,43,36z"/>
		</g>
		<g>
			<path fill="#008232" d="M67,36v16h2v-3.171c0-1.812,0-2.792,2-3.792V40C71,37.791,69.208,36,67,36z"/>
		</g>
		<path fill="#003B15" d="M56.957,24.078c0.004-0.026,0.016-0.051,0.016-0.078c0-0.552-0.896-1-2-1s-2,0.448-2,1
			c0,0.027,0.012,0.052,0.016,0.078c-5.779,0.453-13.462,3.177-13.987,14.653C38.97,39.422,39.521,40,40.213,40
			c5.373,0,14.76,0,14.76,0s9.388,0,14.76,0c0.691,0,1.243-0.578,1.211-1.269C70.419,27.255,62.736,24.531,56.957,24.078z"/>
		<g>
			<path fill="#00E676" d="M54.973,35c-1.654,0-3-1.346-3-3s1.346-3,3-3c1.654,0,3,1.346,3,3S56.626,35,54.973,35z"/>
		</g>
		<g>
			<path fill="#FFFFFF" d="M54.973,29c1.657,0,3,1.343,3,3s-1.343,3-3,3s-3-1.343-3-3S53.316,29,54.973,29 M54.973,28
				c-2.206,0-4,1.794-4,4s1.794,4,4,4s4-1.794,4-4S57.178,28,54.973,28L54.973,28z"/>
		</g>
		<path fill="#006E31" d="M54.973,37.356c-8.169,0.063-14.169,2.71-14,2.644c1,2,1,7,4,5.356c1.24-0.681,5-3,10-3s8.76,2.319,10,3
			c3,1.644,3-3.356,4-5.356C69.142,40.066,63.142,37.419,54.973,37.356z"/>
	</g>
</g>
<g id="R-Green" display="none">
	<g display="inline">
		<circle fill="#64DD17" cx="55" cy="55" r="55"/>
	</g>
	<g display="inline">
		<path fill="#ECF5E1" d="M70,45.036c-0.348,0-0.694,0-1,0V45c-0.003-1.721-0.044-3.403-0.196-5c-5.457,0-13.831,0-13.831,0
			s-8.319,0-13.776,0c-0.152,1.597-0.193,3.279-0.196,5v8l4,10l5.105,3.995c0.569,0.64,1.384,1.005,2.24,1.005H55h2.655
			c0.856,0,1.671-0.365,2.24-1.005L65,63l3.193-7.982C71.039,54.827,72,50.517,72,47.258C72,46.148,71,45.036,70,45.036z"/>
		<g>
			<path fill="#003B15" d="M83,76c-0.615-1.333-1.698-2.394-3.043-2.983L65,69H55H45l-14.958,4.017
				C28.698,73.606,27.615,74.667,27,76l-4,11h32h32L83,76z"/>
		</g>
		<path fill="#C5EB98" d="M57.655,68H55h-2.655c-0.856,0-1.671-0.365-2.24-1.005L45,63v11c0,0,2,4,10,4s10-4,10-4V63l-5.105,3.995
			C59.326,67.635,58.511,68,57.655,68z"/>
		<path fill="#ECF5E1" d="M50.105,66.995L45,63v11c0,0,2,4,10,4V68h-2.655C51.489,68,50.674,67.635,50.105,66.995z"/>
		<path fill="#00C250" d="M75.553,82.106C75.214,81.428,74.521,81,73.764,81h-1.937L70,70.036l-4-1L66.92,81H55H43.08L44,69.036
			l-4,1L38.173,81h-1.937c-0.758,0-1.45,0.428-1.789,1.106L32,87h23h23L75.553,82.106z"/>
		<path fill="#FFFFFF" d="M54.973,40c0,0-8.319,0-13.776,0c-0.152,1.597-0.193,3.279-0.196,5v0.036c-0.306,0-0.652,0-1,0
			c-1,0-2,1.112-2,2.222c0,3.259,0.961,7.569,3.807,7.76L45,63l5.105,3.996C50.674,67.635,51.489,68,52.345,68H55V40
			C54.995,40,54.973,40,54.973,40z"/>
		<g>
			<path fill="#003B15" d="M52,47.036c0-1.104-0.896-2-2-2c-0.002,0-0.004,0.001-0.006,0.001C49.995,45.058,50,45.078,50,45.099
				c0,1.103-0.892,1.996-1.994,2c0.033,1.075,0.91,1.938,1.994,1.938C51.104,49.036,52,48.141,52,47.036z"/>
		</g>
		<g>
			<path fill="#003B15" d="M61.994,47.036c0-1.104-0.896-2-2-2c-0.002,0-0.004,0.001-0.006,0.001
				c0.001,0.021,0.006,0.041,0.006,0.062c0,1.103-0.892,1.996-1.994,2c0.033,1.075,0.91,1.938,1.994,1.938
				C61.098,49.036,61.994,48.141,61.994,47.036z"/>
		</g>
		<g>
			<path fill="#56C435" d="M50,57.033h10c0,0,0,3-5,3S50,57.033,50,57.033z"/>
		</g>
		<g>
			<path fill="#008232" d="M43,36v16h-2v-3.171c0-1.812,0-2.792-2-3.792V40C39,37.791,40.791,36,43,36z"/>
		</g>
		<g>
			<path fill="#008232" d="M67,36v16h2v-3.171c0-1.812,0-2.792,2-3.792V40C71,37.791,69.208,36,67,36z"/>
		</g>
		<path fill="#003B15" d="M56.957,24.078c0.004-0.026,0.016-0.051,0.016-0.078c0-0.552-0.896-1-2-1s-2,0.448-2,1
			c0,0.027,0.012,0.052,0.016,0.078c-5.779,0.453-13.462,3.177-13.987,14.653C38.97,39.422,39.521,40,40.213,40
			c5.373,0,14.76,0,14.76,0s9.388,0,14.76,0c0.691,0,1.243-0.578,1.211-1.269C70.419,27.255,62.736,24.531,56.957,24.078z"/>
		<g>
			<path fill="#00E676" d="M54.973,35c-1.654,0-3-1.346-3-3s1.346-3,3-3c1.654,0,3,1.346,3,3S56.626,35,54.973,35z"/>
		</g>
		<g>
			<path fill="#FFFFFF" d="M54.973,29c1.657,0,3,1.343,3,3s-1.343,3-3,3s-3-1.343-3-3S53.316,29,54.973,29 M54.973,28
				c-2.206,0-4,1.794-4,4s1.794,4,4,4s4-1.794,4-4S57.178,28,54.973,28L54.973,28z"/>
		</g>
		<path fill="#006E31" d="M54.973,37.356c-8.169,0.063-14.169,2.71-14,2.644c1,2,1,7,4,5.356c1.24-0.681,5-3,10-3s8.76,2.319,10,3
			c3,1.644,3-3.356,4-5.356C69.142,40.066,63.142,37.419,54.973,37.356z"/>
	</g>
</g>
<g id="Red" display="none">
	<g display="inline">
		<path fill="#FFE4DE" d="M70,45.036c-0.348,0-0.694,0-1,0V45c-0.003-1.721-0.044-3.403-0.196-5c-5.457,0-13.831,0-13.831,0
			s-8.319,0-13.776,0c-0.152,1.597-0.193,3.279-0.196,5v8l4,10l5.105,3.995c0.569,0.64,1.384,1.005,2.24,1.005H55h2.655
			c0.856,0,1.671-0.365,2.24-1.005L65,63l3.193-7.982C71.039,54.827,72,50.517,72,47.258C72,46.148,71,45.036,70,45.036z"/>
		<g>
			<path fill="#2C0900" d="M83,76c-0.615-1.333-1.698-2.394-3.043-2.983L65,69H55H45l-14.958,4.017
				C28.698,73.606,27.615,74.667,27,76l-4,11h32h32L83,76z"/>
		</g>
		<path fill="#FFC7B2" d="M57.655,68H55h-2.655c-0.856,0-1.671-0.365-2.24-1.005L45,63v11c0,0,2,4,10,4s10-4,10-4V63l-5.105,3.995
			C59.326,67.635,58.511,68,57.655,68z"/>
		<path fill="#FFE4DE" d="M50.105,66.995L45,63v11c0,0,2,4,10,4V68h-2.655C51.489,68,50.674,67.635,50.105,66.995z"/>
		<path fill="#D22600" d="M75.553,82.106C75.214,81.428,74.521,81,73.764,81h-1.937L70,70.036l-4-1L66.92,81H55H43.08L44,69.036
			l-4,1L38.173,81h-1.937c-0.758,0-1.45,0.428-1.789,1.106L32,87h23h23L75.553,82.106z"/>
		<path fill="#FFFFFF" d="M54.973,40c0,0-8.319,0-13.776,0c-0.152,1.597-0.193,3.279-0.196,5v0.036c-0.306,0-0.652,0-1,0
			c-1,0-2,1.112-2,2.222c0,3.259,0.961,7.569,3.807,7.76L45,63l5.105,3.996C50.674,67.635,51.489,68,52.345,68H55V40
			C54.995,40,54.973,40,54.973,40z"/>
		<g>
			<path fill="#2C0900" d="M52,47.036c0-1.104-0.896-2-2-2c-0.002,0-0.004,0.001-0.006,0.001C49.995,45.058,50,45.078,50,45.099
				c0,1.103-0.892,1.996-1.994,2c0.033,1.075,0.91,1.938,1.994,1.938C51.104,49.036,52,48.141,52,47.036z"/>
		</g>
		<g>
			<path fill="#2C0900" d="M61.994,47.036c0-1.104-0.896-2-2-2c-0.002,0-0.004,0.001-0.006,0.001
				c0.001,0.021,0.006,0.041,0.006,0.062c0,1.103-0.892,1.996-1.994,2c0.033,1.075,0.91,1.938,1.994,1.938
				C61.098,49.036,61.994,48.141,61.994,47.036z"/>
		</g>
		<g>
			<path fill="#DE5735" d="M50,57.033h10c0,0,0,3-5,3S50,57.033,50,57.033z"/>
		</g>
		<g>
			<path fill="#99412B" d="M43,36v16h-2v-3.171c0-1.812,0-2.792-2-3.792V40C39,37.791,40.791,36,43,36z"/>
		</g>
		<g>
			<path fill="#99412B" d="M67,36v16h2v-3.171c0-1.812,0-2.792,2-3.792V40C71,37.791,69.208,36,67,36z"/>
		</g>
		<path fill="#2C0900" d="M56.957,24.078c0.004-0.026,0.016-0.051,0.016-0.078c0-0.552-0.896-1-2-1s-2,0.448-2,1
			c0,0.027,0.012,0.052,0.016,0.078c-5.779,0.453-13.462,3.177-13.987,14.653C38.97,39.422,39.521,40,40.213,40
			c5.373,0,14.76,0,14.76,0s9.388,0,14.76,0c0.691,0,1.243-0.578,1.211-1.269C70.419,27.255,62.736,24.531,56.957,24.078z"/>
		<g>
			<path fill="#FF2F00" d="M54.973,35c-1.654,0-3-1.346-3-3s1.346-3,3-3c1.654,0,3,1.346,3,3S56.626,35,54.973,35z"/>
		</g>
		<g>
			<path fill="#FFFFFF" d="M54.973,29c1.657,0,3,1.343,3,3s-1.343,3-3,3s-3-1.343-3-3S53.316,29,54.973,29 M54.973,28
				c-2.206,0-4,1.794-4,4s1.794,4,4,4s4-1.794,4-4S57.178,28,54.973,28L54.973,28z"/>
		</g>
		<path fill="#7A1C05" d="M54.973,37.356c-8.169,0.063-14.169,2.71-14,2.644c1,2,1,7,4,5.356c1.24-0.681,5-3,10-3s8.76,2.319,10,3
			c3,1.644,3-3.356,4-5.356C69.142,40.066,63.142,37.419,54.973,37.356z"/>
	</g>
</g>
<g id="R-Red" display="none">
	<g display="inline">
		<circle fill="#FF5722" cx="55" cy="55" r="55"/>
	</g>
	<g display="inline">
		<path fill="#FFE4DE" d="M70,45.036c-0.348,0-0.694,0-1,0V45c-0.003-1.721-0.044-3.403-0.196-5c-5.457,0-13.831,0-13.831,0
			s-8.319,0-13.776,0c-0.152,1.597-0.193,3.279-0.196,5v8l4,10l5.105,3.995c0.569,0.64,1.384,1.005,2.24,1.005H55h2.655
			c0.856,0,1.671-0.365,2.24-1.005L65,63l3.193-7.982C71.039,54.827,72,50.517,72,47.258C72,46.148,71,45.036,70,45.036z"/>
		<g>
			<path fill="#2C0900" d="M83,76c-0.615-1.333-1.698-2.394-3.043-2.983L65,69H55H45l-14.958,4.017
				C28.698,73.606,27.615,74.667,27,76l-4,11h32h32L83,76z"/>
		</g>
		<path fill="#FFC7B2" d="M57.655,68H55h-2.655c-0.856,0-1.671-0.365-2.24-1.005L45,63v11c0,0,2,4,10,4s10-4,10-4V63l-5.105,3.995
			C59.326,67.635,58.511,68,57.655,68z"/>
		<path fill="#FFE4DE" d="M50.105,66.995L45,63v11c0,0,2,4,10,4V68h-2.655C51.489,68,50.674,67.635,50.105,66.995z"/>
		<path fill="#D22600" d="M75.553,82.106C75.214,81.428,74.521,81,73.764,81h-1.937L70,70.036l-4-1L66.92,81H55H43.08L44,69.036
			l-4,1L38.173,81h-1.937c-0.758,0-1.45,0.428-1.789,1.106L32,87h23h23L75.553,82.106z"/>
		<path fill="#FFFFFF" d="M54.973,40c0,0-8.319,0-13.776,0c-0.152,1.597-0.193,3.279-0.196,5v0.036c-0.306,0-0.652,0-1,0
			c-1,0-2,1.112-2,2.222c0,3.259,0.961,7.569,3.807,7.76L45,63l5.105,3.996C50.674,67.635,51.489,68,52.345,68H55V40
			C54.995,40,54.973,40,54.973,40z"/>
		<g>
			<path fill="#2C0900" d="M52,47.036c0-1.104-0.896-2-2-2c-0.002,0-0.004,0.001-0.006,0.001C49.995,45.058,50,45.078,50,45.099
				c0,1.103-0.892,1.996-1.994,2c0.033,1.075,0.91,1.938,1.994,1.938C51.104,49.036,52,48.141,52,47.036z"/>
		</g>
		<g>
			<path fill="#2C0900" d="M61.994,47.036c0-1.104-0.896-2-2-2c-0.002,0-0.004,0.001-0.006,0.001
				c0.001,0.021,0.006,0.041,0.006,0.062c0,1.103-0.892,1.996-1.994,2c0.033,1.075,0.91,1.938,1.994,1.938
				C61.098,49.036,61.994,48.141,61.994,47.036z"/>
		</g>
		<g>
			<path fill="#DE5735" d="M50,57.033h10c0,0,0,3-5,3S50,57.033,50,57.033z"/>
		</g>
		<g>
			<path fill="#99412B" d="M43,36v16h-2v-3.171c0-1.812,0-2.792-2-3.792V40C39,37.791,40.791,36,43,36z"/>
		</g>
		<g>
			<path fill="#99412B" d="M67,36v16h2v-3.171c0-1.812,0-2.792,2-3.792V40C71,37.791,69.208,36,67,36z"/>
		</g>
		<path fill="#2C0900" d="M56.957,24.078c0.004-0.026,0.016-0.051,0.016-0.078c0-0.552-0.896-1-2-1s-2,0.448-2,1
			c0,0.027,0.012,0.052,0.016,0.078c-5.779,0.453-13.462,3.177-13.987,14.653C38.97,39.422,39.521,40,40.213,40
			c5.373,0,14.76,0,14.76,0s9.388,0,14.76,0c0.691,0,1.243-0.578,1.211-1.269C70.419,27.255,62.736,24.531,56.957,24.078z"/>
		<g>
			<path fill="#FF2F00" d="M54.973,35c-1.654,0-3-1.346-3-3s1.346-3,3-3c1.654,0,3,1.346,3,3S56.626,35,54.973,35z"/>
		</g>
		<g>
			<path fill="#FFFFFF" d="M54.973,29c1.657,0,3,1.343,3,3s-1.343,3-3,3s-3-1.343-3-3S53.316,29,54.973,29 M54.973,28
				c-2.206,0-4,1.794-4,4s1.794,4,4,4s4-1.794,4-4S57.178,28,54.973,28L54.973,28z"/>
		</g>
		<path fill="#7A1C05" d="M54.973,37.356c-8.169,0.063-14.169,2.71-14,2.644c1,2,1,7,4,5.356c1.24-0.681,5-3,10-3s8.76,2.319,10,3
			c3,1.644,3-3.356,4-5.356C69.142,40.066,63.142,37.419,54.973,37.356z"/>
	</g>
</g>
<g id="Yellow" display="none">
	<g display="inline">
		<path fill="#FFF4D1" d="M70,45.036c-0.348,0-0.694,0-1,0V45c-0.003-1.721-0.044-3.403-0.196-5c-5.457,0-13.831,0-13.831,0
			s-8.319,0-13.776,0c-0.152,1.597-0.193,3.279-0.196,5v8l4,10l5.105,3.995c0.569,0.64,1.384,1.005,2.24,1.005H55h2.655
			c0.856,0,1.671-0.365,2.24-1.005L65,63l3.193-7.982C71.039,54.827,72,50.517,72,47.258C72,46.148,71,45.036,70,45.036z"/>
		<g>
			<path fill="#4C2720" d="M83,76c-0.615-1.333-1.698-2.394-3.043-2.983L65,69H55H45l-14.958,4.017
				C28.698,73.606,27.615,74.667,27,76l-4,11h32h32L83,76z"/>
		</g>
		<path fill="#FFEBB8" d="M57.655,68H55h-2.655c-0.856,0-1.671-0.365-2.24-1.005L45,63v11c0,0,2,4,10,4s10-4,10-4V63l-5.105,3.995
			C59.326,67.635,58.511,68,57.655,68z"/>
		<path fill="#FFF4D1" d="M50.105,66.995L45,63v11c0,0,2,4,10,4V68h-2.655C51.489,68,50.674,67.635,50.105,66.995z"/>
		<path fill="#FF8000" d="M75.553,82.106C75.214,81.428,74.521,81,73.764,81h-1.937L70,70.036l-4-1L66.92,81H55H43.08L44,69.036
			l-4,1L38.173,81h-1.937c-0.758,0-1.45,0.428-1.789,1.106L32,87h23h23L75.553,82.106z"/>
		<path fill="#FFFFFF" d="M54.973,40c0,0-8.319,0-13.776,0c-0.152,1.597-0.193,3.279-0.196,5v0.036c-0.306,0-0.652,0-1,0
			c-1,0-2,1.112-2,2.222c0,3.259,0.961,7.569,3.807,7.76L45,63l5.105,3.996C50.674,67.635,51.489,68,52.345,68H55V40
			C54.995,40,54.973,40,54.973,40z"/>
		<g>
			<path fill="#4C2720" d="M52,47.036c0-1.104-0.896-2-2-2c-0.002,0-0.004,0.001-0.006,0.001C49.995,45.058,50,45.078,50,45.099
				c0,1.103-0.892,1.996-1.994,2c0.033,1.075,0.91,1.938,1.994,1.938C51.104,49.036,52,48.141,52,47.036z"/>
		</g>
		<g>
			<path fill="#4C2720" d="M61.994,47.036c0-1.104-0.896-2-2-2c-0.002,0-0.004,0.001-0.006,0.001
				c0.001,0.021,0.006,0.041,0.006,0.062c0,1.103-0.892,1.996-1.994,2c0.033,1.075,0.91,1.938,1.994,1.938
				C61.098,49.036,61.994,48.141,61.994,47.036z"/>
		</g>
		<g>
			<path fill="#F7B90C" d="M50,57.033h10c0,0,0,3-5,3S50,57.033,50,57.033z"/>
		</g>
		<g>
			<path fill="#AB6C24" d="M43,36v16h-2v-3.171c0-1.812,0-2.792-2-3.792V40C39,37.791,40.791,36,43,36z"/>
		</g>
		<g>
			<path fill="#AB6C24" d="M67,36v16h2v-3.171c0-1.812,0-2.792,2-3.792V40C71,37.791,69.208,36,67,36z"/>
		</g>
		<path fill="#4C2720" d="M56.957,24.078c0.004-0.026,0.016-0.051,0.016-0.078c0-0.552-0.896-1-2-1s-2,0.448-2,1
			c0,0.027,0.012,0.052,0.016,0.078c-5.779,0.453-13.462,3.177-13.987,14.653C38.97,39.422,39.521,40,40.213,40
			c5.373,0,14.76,0,14.76,0s9.388,0,14.76,0c0.691,0,1.243-0.578,1.211-1.269C70.419,27.255,62.736,24.531,56.957,24.078z"/>
		<g>
			<path fill="#FF9D00" d="M54.973,35c-1.654,0-3-1.346-3-3s1.346-3,3-3c1.654,0,3,1.346,3,3S56.626,35,54.973,35z"/>
		</g>
		<g>
			<path fill="#FFFFFF" d="M54.973,29c1.657,0,3,1.343,3,3s-1.343,3-3,3s-3-1.343-3-3S53.316,29,54.973,29 M54.973,28
				c-2.206,0-4,1.794-4,4s1.794,4,4,4s4-1.794,4-4S57.178,28,54.973,28L54.973,28z"/>
		</g>
		<path fill="#804B1C" d="M54.973,37.356c-8.169,0.063-14.169,2.71-14,2.644c1,2,1,7,4,5.356c1.24-0.681,5-3,10-3s8.76,2.319,10,3
			c3,1.644,3-3.356,4-5.356C69.142,40.066,63.142,37.419,54.973,37.356z"/>
	</g>
</g>
<g id="R-Yellow" display="none">
	<g display="inline">
		<circle fill="#FED600" cx="55" cy="55" r="55"/>
	</g>
	<g display="inline">
		<path fill="#FFF4D1" d="M70,45.036c-0.348,0-0.694,0-1,0V45c-0.003-1.721-0.044-3.403-0.196-5c-5.457,0-13.831,0-13.831,0
			s-8.319,0-13.776,0c-0.152,1.597-0.193,3.279-0.196,5v8l4,10l5.105,3.995c0.569,0.64,1.384,1.005,2.24,1.005H55h2.655
			c0.856,0,1.671-0.365,2.24-1.005L65,63l3.193-7.982C71.039,54.827,72,50.517,72,47.258C72,46.148,71,45.036,70,45.036z"/>
		<g>
			<path fill="#4C2720" d="M83,76c-0.615-1.333-1.698-2.394-3.043-2.983L65,69H55H45l-14.958,4.017
				C28.698,73.606,27.615,74.667,27,76l-4,11h32h32L83,76z"/>
		</g>
		<path fill="#FFEBB8" d="M57.655,68H55h-2.655c-0.856,0-1.671-0.365-2.24-1.005L45,63v11c0,0,2,4,10,4s10-4,10-4V63l-5.105,3.995
			C59.326,67.635,58.511,68,57.655,68z"/>
		<path fill="#FFF4D1" d="M50.105,66.995L45,63v11c0,0,2,4,10,4V68h-2.655C51.489,68,50.674,67.635,50.105,66.995z"/>
		<path fill="#FF8000" d="M75.553,82.106C75.214,81.428,74.521,81,73.764,81h-1.937L70,70.036l-4-1L66.92,81H55H43.08L44,69.036
			l-4,1L38.173,81h-1.937c-0.758,0-1.45,0.428-1.789,1.106L32,87h23h23L75.553,82.106z"/>
		<path fill="#FFFFFF" d="M54.973,40c0,0-8.319,0-13.776,0c-0.152,1.597-0.193,3.279-0.196,5v0.036c-0.306,0-0.652,0-1,0
			c-1,0-2,1.112-2,2.222c0,3.259,0.961,7.569,3.807,7.76L45,63l5.105,3.996C50.674,67.635,51.489,68,52.345,68H55V40
			C54.995,40,54.973,40,54.973,40z"/>
		<g>
			<path fill="#4C2720" d="M52,47.036c0-1.104-0.896-2-2-2c-0.002,0-0.004,0.001-0.006,0.001C49.995,45.058,50,45.078,50,45.099
				c0,1.103-0.892,1.996-1.994,2c0.033,1.075,0.91,1.938,1.994,1.938C51.104,49.036,52,48.141,52,47.036z"/>
		</g>
		<g>
			<path fill="#4C2720" d="M61.994,47.036c0-1.104-0.896-2-2-2c-0.002,0-0.004,0.001-0.006,0.001
				c0.001,0.021,0.006,0.041,0.006,0.062c0,1.103-0.892,1.996-1.994,2c0.033,1.075,0.91,1.938,1.994,1.938
				C61.098,49.036,61.994,48.141,61.994,47.036z"/>
		</g>
		<g>
			<path fill="#F7B90C" d="M50,57.033h10c0,0,0,3-5,3S50,57.033,50,57.033z"/>
		</g>
		<g>
			<path fill="#AB6C24" d="M43,36v16h-2v-3.171c0-1.812,0-2.792-2-3.792V40C39,37.791,40.791,36,43,36z"/>
		</g>
		<g>
			<path fill="#AB6C24" d="M67,36v16h2v-3.171c0-1.812,0-2.792,2-3.792V40C71,37.791,69.208,36,67,36z"/>
		</g>
		<path fill="#4C2720" d="M56.957,24.078c0.004-0.026,0.016-0.051,0.016-0.078c0-0.552-0.896-1-2-1s-2,0.448-2,1
			c0,0.027,0.012,0.052,0.016,0.078c-5.779,0.453-13.462,3.177-13.987,14.653C38.97,39.422,39.521,40,40.213,40
			c5.373,0,14.76,0,14.76,0s9.388,0,14.76,0c0.691,0,1.243-0.578,1.211-1.269C70.419,27.255,62.736,24.531,56.957,24.078z"/>
		<g>
			<path fill="#FF9D00" d="M54.973,35c-1.654,0-3-1.346-3-3s1.346-3,3-3c1.654,0,3,1.346,3,3S56.626,35,54.973,35z"/>
		</g>
		<g>
			<path fill="#FFFFFF" d="M54.973,29c1.657,0,3,1.343,3,3s-1.343,3-3,3s-3-1.343-3-3S53.316,29,54.973,29 M54.973,28
				c-2.206,0-4,1.794-4,4s1.794,4,4,4s4-1.794,4-4S57.178,28,54.973,28L54.973,28z"/>
		</g>
		<path fill="#804B1C" d="M54.973,37.356c-8.169,0.063-14.169,2.71-14,2.644c1,2,1,7,4,5.356c1.24-0.681,5-3,10-3s8.76,2.319,10,3
			c3,1.644,3-3.356,4-5.356C69.142,40.066,63.142,37.419,54.973,37.356z"/>
	</g>
</g>
</svg>
